<svg xmlns="http://www.w3.org/2000/svg" width="325" height="325" viewBox="0 0 325.00000000000006 325.00000000000006"><defs><clipPath id="b"><path d="M0 25h300v300H0z"/></clipPath><clipPath id="a"><path transform="rotate(26.565 224.543 175.604)" d="M0 25h300v300H0z"/></clipPath></defs><path fill="none" stroke="#000" d="M0 325V25M18.75 325V25M37.5 325V25M56.25 325V25M75 325V25M93.75 325V25M112.5 325V25M131.25 325V25M150 325V25M168.75 325V25M187.5 325V25M206.25 325V25M225 325V25M243.75 325V25M262.5 325V25M281.25 325V25M300 325V25M0 325h300M0 306.25h300M0 287.5h300M0 268.75h300M0 250h300M0 231.25h300M0 212.5h300M0 193.75h300M0 175h300M0 156.25h300M0 137.5h300M0 118.75h300M0 100h300M0 81.25h300M0 62.5h300M0 43.75h300M0 25h300" stroke-width="2" opacity=".1"/><path fill="none" stroke="#000" d="M7.05 244.4c-.35 2.1-4.2 5.25-5.25 5.6 1.05.35 4.9 3.5 5.25 5.6" stroke-width="2" stroke-linejoin="round" stroke-linecap="round"/><path fill="none" stroke="#000" d="M75 250H1.05" stroke-width="2"/><path fill="none" stroke="#000" d="M294.45 255.6c.35-2.1 4.2-5.25 5.25-5.6-1.05-.35-4.9-3.5-5.25-5.6" stroke-width="2" stroke-linejoin="round" stroke-linecap="round"/><path fill="none" stroke="#000" d="M75 250h223.95" stroke-width="2"/><path fill="none" stroke="#000" d="M70.15 318.7c2.1.35 5.25 4.2 5.6 5.25.35-1.05 3.5-4.9 5.6-5.25" stroke-width="2" stroke-linejoin="round" stroke-linecap="round"/><path fill="none" stroke="#000" d="M75 250v73.95" stroke-width="2"/><path fill="none" stroke="#000" d="M81.35 31.3c-2.1-.35-5.25-4.2-5.6-5.25-.35 1.05-3.5 4.9-5.6 5.25" stroke-width="2" stroke-linejoin="round" stroke-linecap="round"/><path fill="none" stroke="#000" d="M75 250V26.05" stroke-width="2"/><path fill="none" stroke="#000" d="M112.5 255v-10M150 255v-10M187.5 255v-10M225 255v-10M262.5 255v-10M37.5 255v-10M70 212.5h10M70 175h10M70 137.5h10M70 100h10M70 62.5h10M70 287.5h10"/><path fill="none" stroke="#11accd" d="M217.793 182.804c.45-2.7 5.4-6.75 6.75-7.2-1.35-.45-6.3-4.5-6.75-7.2" transform="rotate(-26.565 224.543 175.604)" stroke-width="3" clip-path="url(#a)" stroke-linejoin="round" stroke-linecap="round"/><path fill="none" stroke="#11accd" d="M75 250l148.793-74.396" stroke-width="3" clip-path="url(#b)"/></svg>
